<?xml version="1.0" standalone="no"?>
<svg viewBox="0 0 200 200" xmlns="http://www.w3.org/2000/svg">
  <path fill="#1E2735" d="M29.3,-44.9C38.1,-45.6,45.7,-38.1,48.4,-29.3C51.1,-20.5,49,-10.2,45.5,-2C42,6.2,37.1,12.4,37,25.7C36.9,39,41.4,59.3,36.1,69.7C30.7,80.2,15.3,80.6,3.5,74.5C-8.3,68.4,-16.6,55.8,-21.4,45C-26.2,34.3,-27.4,25.4,-37.7,18.2C-48,11,-67.2,5.5,-73.5,-3.6C-79.8,-12.8,-73.1,-25.5,-63.8,-34.4C-54.5,-43.3,-42.6,-48.3,-31.6,-46.4C-20.5,-44.5,-10.3,-35.7,0,-35.6C10.2,-35.6,20.4,-44.3,29.3,-44.9Z" transform="translate(100 100)" />
</svg>
